# xmcd
#
# Track frame offsets: 
#        150
#        15867
#        30965
#        48064
#        63455
#        82317
#        99603
#        113948
#        134585
#        147060
#
# Disc length: 2141 seconds
#
# Revision: 2
# Processed by: cddbd v1.5.2PL0 Copyright (c) Steve Scherf et al.
# Submitted via: ExactAudioCopy v1.0b1
#
DISCID=7d085b0a
DTITLE=Amy LaVere - This World Is Not My Home
DYEAR=2005
DGENRE=Folk/Rock
TTITLE0=Day Like Any
TTITLE1=Nightingale
TTITLE2=Leaving
TTITLE3=Never Been Sadder
TTITLE4=Innocent Girl
TTITLE5=Take 'em Or Leave 'em
TTITLE6=Last Night
TTITLE7=Set It Down
TTITLE8=The World Is Not My Home
TTITLE9=We Went Sailing
EXTD=
EXTT0=
EXTT1=
EXTT2=
EXTT3=
EXTT4=
EXTT5=
EXTT6=
EXTT7=
EXTT8=
EXTT9=
PLAYORDER=
